<?xml version="1.0" encoding="iso-8859-1"?>
<!-- Uploaded to: SVG Repo, www.svgrepo.com, Generator: SVG Repo Mixer Tools -->
<svg fill="#000000" height="800px" width="800px" version="1.1" id="Layer_1" xmlns="http://www.w3.org/2000/svg" xmlns:xlink="http://www.w3.org/1999/xlink" 
	 viewBox="0 0 512 512" xml:space="preserve">
<g>
	<g>
		<path d="M79.151,172.684c-18.378,0-33.327,14.951-33.327,33.327s14.949,33.327,33.327,33.327
			c18.377,0,33.327-14.951,33.327-33.327S97.528,172.684,79.151,172.684z M79.151,217.119c-6.127,0-11.109-4.983-11.109-11.109
			s4.982-11.109,11.109-11.109s11.109,4.984,11.109,11.109S85.278,217.119,79.151,217.119z"/>
	</g>
</g>
<g>
	<g>
		<path d="M123.587,261.555c-18.377,0-33.327,14.951-33.327,33.327s14.949,33.327,33.327,33.327
			c18.378,0,33.327-14.951,33.327-33.327S141.964,261.555,123.587,261.555z M123.587,305.99c-6.127,0-11.109-4.983-11.109-11.109
			s4.982-11.109,11.109-11.109c6.127,0,11.109,4.983,11.109,11.109S129.714,305.99,123.587,305.99z"/>
	</g>
</g>
<g>
	<g>
		<path d="M256.894,61.594c-18.378,0-33.327,14.951-33.327,33.327s14.949,33.327,33.327,33.327s33.327-14.951,33.327-33.327
			S275.271,61.594,256.894,61.594z M256.894,106.03c-6.127,0-11.109-4.983-11.109-11.109c0-6.125,4.982-11.109,11.109-11.109
			s11.109,4.983,11.109,11.109S263.02,106.03,256.894,106.03z"/>
	</g>
</g>
<g>
	<g>
		<path d="M434.636,161.575c-18.377,0-33.327,14.951-33.327,33.327c0,18.376,14.949,33.327,33.327,33.327
			c18.378,0,33.327-14.951,33.327-33.327C467.963,176.525,453.014,161.575,434.636,161.575z M434.636,206.01
			c-6.127,0-11.109-4.983-11.109-11.109c0-6.125,4.982-11.109,11.109-11.109s11.109,4.983,11.109,11.109
			C445.745,201.027,440.763,206.01,434.636,206.01z"/>
	</g>
</g>
<g>
	<g>
		<path d="M323.547,361.535c-18.377,0-33.327,14.951-33.327,33.327s14.949,33.327,33.327,33.327
			c18.378,0,33.327-14.951,33.327-33.327S341.924,361.535,323.547,361.535z M323.547,405.971c-6.127,0-11.109-4.983-11.109-11.109
			s4.982-11.109,11.109-11.109c6.127,0,11.109,4.984,11.109,11.109S329.674,405.971,323.547,405.971z"/>
	</g>
</g>
<g>
	<g>
		<path d="M179.131,350.426c-18.377,0-33.327,14.951-33.327,33.327c0,18.376,14.949,33.327,33.327,33.327
			c18.378,0,33.327-14.951,33.327-33.327C212.458,365.377,197.509,350.426,179.131,350.426z M179.131,394.862
			c-6.127,0-11.109-4.983-11.109-11.109c0-6.125,4.982-11.109,11.109-11.109s11.109,4.983,11.109,11.109
			C190.24,389.878,185.258,394.862,179.131,394.862z"/>
	</g>
</g>
<g>
	<g>
		<path d="M511.902,103.388c-0.006-0.019,0.081-0.039,0.076-0.058c-0.154-0.615-0.334-1.208-0.591-1.784
			c-0.057-0.129-0.089-0.255-0.152-0.381c-0.271-0.556-0.567-1.093-0.93-1.597c-0.057-0.083-0.122-0.156-0.182-0.237
			c-0.328-0.434-0.692-0.842-1.082-1.226c-0.108-0.104-0.206-0.212-0.317-0.312c-0.391-0.353-0.8-0.686-1.242-0.985
			c-0.073-0.049-0.152-0.084-0.225-0.132c-0.125-0.08-0.257-0.151-0.388-0.226c-0.553-0.323-1.126-0.608-1.717-0.828
			c-0.022-0.008-0.043-0.023-0.065-0.031L260.691,6.718c-2.452-0.892-5.142-0.892-7.594,0L8.701,95.59
			c-0.022,0.008-0.038,0.02-0.06,0.029c-0.594,0.221-1.169,0.507-1.725,0.831c-0.13,0.076-0.26,0.146-0.385,0.226
			c-0.073,0.047-0.152,0.083-0.225,0.132c-0.445,0.298-0.854,0.632-1.245,0.985c-0.109,0.1-0.209,0.207-0.317,0.312
			c-0.393,0.384-0.757,0.792-1.085,1.226c-0.063,0.081-0.13,0.155-0.187,0.237c-0.364,0.504-0.67,1.042-0.941,1.597
			c-0.062,0.126-0.117,0.252-0.176,0.381c-0.255,0.576-0.477,1.169-0.632,1.784c-0.005,0.019-0.005,0.039-0.011,0.058
			c-0.144,0.591-0.225,1.201-0.271,1.817c-0.014,0.156-0.719,0.309-0.724,0.465C0.713,105.792,0,105.909,0,106.03v288.832
			c0,4.51,3.423,8.574,7.597,10.282l244.743,99.98c0.114,0.046,0.407,0.063,0.523,0.104c0.45,0.167,0.995,0.304,1.462,0.411
			c0.187,0.043,0.415,0.094,0.605,0.126c0.635,0.111,1.296,0.186,1.942,0.186c0.643,0,1.294-0.073,1.928-0.186
			c0.19-0.032,0.382-0.083,0.572-0.126c0.466-0.107,0.922-0.243,1.372-0.41c0.117-0.043,0.239-0.058,0.353-0.106l243.704-99.98
			c4.174-1.707,6.208-5.771,6.208-10.282V106.03c0-0.121,0.675-0.239,0.673-0.359c-0.006-0.156,0.328-0.309,0.317-0.465
			C511.954,104.59,512.046,103.98,511.902,103.388z M244.396,478.295L22.218,387.404V122.577l222.178,90.892V478.295z
			 M256.894,194.008L43.329,106.64L256.894,28.98l213.564,77.661L256.894,194.008z M488.792,387.404l-222.178,90.892V213.469
			l222.178-90.892V387.404z"/>
	</g>
</g>
</svg>